<svg width="125" height="83" viewBox="0 0 125 83" fill="none" xmlns="http://www.w3.org/2000/svg">
<g clip-path="url(#clip0_1105_314)">
<path d="M24.3337 52.5782C24.6345 52.3465 24.9319 52.1183 25.2327 51.8867C25.5335 51.6551 25.8619 51.413 26.218 51.1606C26.5742 50.9083 26.9718 50.6351 27.4108 50.3482C27.8499 50.0612 28.3443 49.7327 28.8975 49.3628C31.6393 47.5407 33.693 46.3548 35.0517 45.8016C35.2142 45.7083 35.4424 45.6634 35.7432 45.6634C36.5281 45.6634 36.9084 46.0886 36.8842 46.9426C36.7701 47.2641 36.6318 47.6099 36.4693 47.9798C35.1313 50.1926 33.0568 52.1529 30.2459 53.8574C27.4108 55.5412 24.8074 56.371 22.4322 56.3468L22.2247 56.2776C22.1314 56.2534 22.0864 56.1462 22.0864 55.9492C22.0864 55.7521 22.1106 55.5343 22.1556 55.2923C22.2005 55.0502 22.2524 54.8151 22.3112 54.5835C22.3699 54.3518 22.3976 54.1928 22.3976 54.0994C22.8367 53.1072 23.217 52.2843 23.5385 51.6274C23.8601 50.9705 24.1782 50.3551 24.4893 49.7777C24.8005 49.2003 25.1393 48.6022 25.5093 47.9798C25.8792 47.3575 26.3287 46.5727 26.8577 45.6288C27.1585 45.0998 27.5561 44.4291 28.0505 43.6235C28.5449 42.8179 29.1396 41.9293 29.831 40.9613C30.5225 39.9932 31.2901 38.9836 32.1302 37.936C32.9704 36.8884 33.8866 35.8685 34.8789 34.8762C35.8711 33.8839 36.9257 32.9504 38.0424 32.0757C39.1591 31.201 40.3416 30.4507 41.5863 29.8284C43.2216 29.0228 44.7913 28.4696 46.2883 28.1688C47.7854 27.868 49.2341 27.6848 50.6274 27.6156C52.0207 27.5465 53.3588 27.5188 54.638 27.5292C55.9172 27.5396 57.1446 27.4531 58.3201 27.2699C59.4957 27.0867 60.6193 26.7236 61.6911 26.1808C62.7629 25.638 63.7829 24.7702 64.7509 23.5705C65.0033 23.2489 65.2073 23.0864 65.356 23.0864C65.5047 23.0864 65.5116 23.2489 65.3733 23.5705C65.0517 24.3069 64.7164 24.9638 64.3706 25.5412C64.0249 26.1186 63.5581 26.6372 62.9704 27.097C62.3826 27.5569 61.6116 27.9787 60.6539 28.359C59.6962 28.7393 58.4584 29.1023 56.9372 29.4481C55.7859 29.7247 54.5965 29.8111 53.376 29.7074C52.1556 29.6037 50.9109 29.4999 49.642 29.3962C48.3732 29.2925 47.0905 29.2648 45.787 29.3098C44.4836 29.3547 43.1663 29.6659 41.8283 30.2433C40.9051 30.6582 39.9716 31.2286 39.0278 31.9547C38.0839 32.6808 37.1608 33.5105 36.2618 34.444C35.3629 35.3775 34.4882 36.3802 33.6342 37.452C32.7802 38.5238 31.9816 39.5887 31.2313 40.6501C30.481 41.7115 29.8034 42.7418 29.1914 43.7445C28.5795 44.7471 28.0678 45.653 27.6529 46.4586L24.3337 52.5782ZM24.8524 52.7165C24.2992 53.1763 23.9292 53.8125 23.746 54.6181V54.6526C23.7702 54.6526 23.7806 54.663 23.7806 54.6872C23.7564 54.7114 23.746 54.7322 23.746 54.7564C23.746 54.7806 23.7356 54.8013 23.7114 54.8255L23.746 54.9638C23.6768 55.2646 23.7356 55.4375 23.9189 55.4824C24.1712 55.5516 24.7037 55.5066 25.5093 55.3441C26.384 55.1609 27.2553 54.8532 28.1196 54.4279C28.984 54.0026 29.8656 53.4667 30.7645 52.8202C32.6557 51.4372 33.9004 50.0301 34.4985 48.6022L34.6368 48.049C34.661 47.3333 34.4052 46.9772 33.8762 46.9772C33.3472 46.9772 31.8709 47.807 29.3816 49.4665C28.3443 50.1338 27.4627 50.7458 26.7367 51.2989C26.0106 51.8521 25.3813 52.3258 24.8524 52.7165Z" fill="black" stroke="black" stroke-width="0.5" stroke-miterlimit="10"/>
<path d="M42.2432 47.4266C41.9908 47.7724 41.7176 48.1596 41.4307 48.5849C41.1437 49.0101 40.8706 49.4665 40.6182 49.9505C40.3658 50.4346 40.1445 50.9359 39.9613 51.4545C39.778 51.9731 39.6743 52.509 39.6501 53.0622C39.6259 53.5705 39.6778 53.9854 39.8057 54.3069C39.9336 54.6284 40.1065 54.8774 40.3243 55.0502C40.5421 55.2231 40.798 55.3372 41.0849 55.396C41.3719 55.4548 41.6658 55.472 41.9666 55.4478C42.7272 55.3337 43.5397 55.1125 44.4041 54.7909C45.2684 54.4694 46.0118 54.134 46.6341 53.7883C46.8173 53.6742 46.9556 53.6569 47.049 53.7364C47.1423 53.8159 47.0939 53.9162 46.9107 54.0303C46.6583 54.217 46.3575 54.4175 46.0118 54.6353C45.666 54.8532 45.2857 55.0675 44.8708 55.275C44.4559 55.4824 44.0237 55.6726 43.5743 55.8454C43.1248 56.0183 42.6926 56.1393 42.2777 56.2085C41.932 56.2776 41.5517 56.2361 41.1368 56.0875C40.7219 55.9388 40.3416 55.7141 39.9958 55.4133C39.6501 55.1125 39.3631 54.7633 39.1315 54.3587C38.8998 53.9542 38.7961 53.5221 38.8203 53.0622C38.8895 51.7933 39.2387 50.5279 39.8748 49.2591C40.5075 47.9902 41.282 46.8112 42.1913 45.7152C43.1006 44.6192 44.0583 43.6753 45.061 42.8801C46.0636 42.0849 46.9695 41.5248 47.775 41.2033C48.2141 41.065 48.6048 41.0823 48.9506 41.2551C49.2963 41.428 49.566 41.6804 49.7631 42.0158C49.9601 42.3511 50.0742 42.7245 50.1088 43.1394C50.1434 43.5543 50.0569 43.9346 49.8495 44.2804C49.5037 44.9269 48.8607 45.774 47.9825 46.2511C46.399 47.112 42.9347 47.4266 42.2432 47.4266ZM49.0197 43.9692C49.2514 43.5993 49.3758 43.2777 49.4 43.0011C49.4242 42.7245 49.3654 42.5102 49.2271 42.3615C49.0889 42.2128 48.8883 42.1437 48.6221 42.1541C48.3559 42.1644 48.0516 42.2647 47.7059 42.448C46.8519 42.932 45.9876 43.5716 45.1128 44.3668C44.2381 45.162 43.4083 45.9849 42.6235 46.8389C43.2216 46.8389 43.844 46.7697 44.4905 46.6314C45.137 46.4931 45.7455 46.2926 46.3229 46.0264C46.9003 45.7602 47.4224 45.4559 47.896 45.1102C48.3697 44.7644 48.7431 44.3841 49.0197 43.9692Z" fill="black" stroke="black" stroke-width="0.5" stroke-miterlimit="10"/>
<path d="M49.9669 57.6744C50.5754 57.6744 51.1355 57.7021 51.6506 57.7609C51.9376 57.7989 52.0794 57.875 52.0794 57.9925C52.0794 58.1861 51.9376 58.2518 51.6506 58.1965C51.139 58.1377 50.527 58.1101 49.8251 58.1101C49.673 58.4765 49.5209 58.8534 49.3688 59.2372C49.2166 59.621 49.0645 60.0082 48.9124 60.392C46.6132 66.1935 44.2587 70.8783 41.8523 74.4429C39.446 78.0075 37.0189 80.4761 34.5641 81.8452C33.2122 82.5574 31.9123 82.9136 30.6572 82.9136C28.6415 82.9136 26.9197 82.0734 25.4953 80.3966C24.7934 79.5288 24.2645 78.5987 23.9118 77.6064C23.5591 76.6142 23.3828 75.5216 23.3828 74.3253C23.3828 70.8748 24.8937 67.8289 27.9189 65.1908C29.4575 63.8217 31.1966 62.6324 33.1258 61.6193C35.055 60.6063 37.1917 59.7835 39.5289 59.1473C41.2023 58.7047 42.8377 58.3521 44.435 58.0928C46.0323 57.8335 47.64 57.6917 49.2547 57.6744M49.2789 57.6744C49.4517 57.3391 49.6177 57.0071 49.7802 56.6718C49.9427 56.3364 50.1156 55.9872 50.2988 55.6173C50.482 55.2473 50.7137 54.8324 50.9903 54.3726C51.4985 53.4979 51.986 52.6024 52.4597 51.6931C52.9333 50.7838 53.4208 49.878 53.9291 48.979C53.4692 48.5641 53.2722 48.2184 53.3413 47.9418C53.4796 47.5511 54.0916 47.1362 55.1738 46.6971C55.7511 45.8224 56.4772 44.716 57.3519 43.378C58.2267 42.04 59.2639 40.4738 60.4636 38.6759C60.5777 38.4927 60.9926 38.261 61.7083 37.9844C62.0091 37.8911 62.1577 37.9257 62.1577 38.0882C62.1577 38.1815 62.1232 38.2368 62.054 38.261C61.9849 38.2852 61.8811 38.3993 61.7428 38.6068C61.0514 39.6198 60.308 40.74 59.5128 41.9605C58.7176 43.1809 57.8809 44.5535 57.0062 46.0748C57.9501 45.7048 58.7937 45.4421 59.5301 45.2796C60.2665 45.1171 60.9373 45.0376 61.5354 45.0376C63.195 45.0376 64.0247 45.7982 64.0247 47.3195C64.0247 48.5192 62.3029 51.2575 61.328 52.2981C59.5197 54.2274 56.937 55.1678 53.9637 55.5135C53.4796 55.5585 53.2376 55.3407 53.2376 54.8566C53.2376 54.7183 53.2722 54.5904 53.3759 54.5109C53.6525 54.2931 60.92 55.4064 62.6418 47.5961C62.908 46.379 61.9503 45.7291 60.5673 45.7291C60.0383 45.7291 59.4333 45.8431 58.7522 46.0748C58.0711 46.3064 57.2932 46.6522 56.4184 47.112C55.9793 47.8484 55.5126 48.5399 55.0182 49.1865C54.5238 49.833 53.9913 50.5694 53.4278 51.3992C52.8642 52.229 52.2592 53.2247 51.6126 54.3899C51.0802 55.3476 50.527 56.5127 49.9496 57.8853M48.3384 60.3678C48.4491 60.0912 48.5805 59.78 48.7291 59.4377C48.8778 59.0954 49.0438 58.7082 49.2305 58.2829C47.8233 58.3002 46.4092 58.4247 44.9882 58.6598C43.5707 58.8914 42.1013 59.2303 40.58 59.6763C38.3915 60.3263 36.3827 61.1318 34.5468 62.0965C32.7109 63.0611 31.0444 64.202 29.5405 65.5158C26.166 68.389 24.4788 71.3831 24.4788 74.4982C24.4788 76.462 25.1945 78.1423 26.619 79.5322C27.2862 80.2168 28.0227 80.725 28.8282 81.0466C29.6338 81.3716 30.5016 81.5341 31.4282 81.5341C32.6349 81.5341 33.7551 81.2471 34.7923 80.6732C36.8875 79.5426 39.0103 77.4024 41.1608 74.2493C41.9595 73.1014 42.7547 71.8291 43.5534 70.4392C44.352 69.0493 45.13 67.5108 45.8906 65.8236C46.2986 64.935 46.7031 64.0292 47.1007 63.1129C47.4983 62.1967 47.9132 61.2805 48.3384 60.3747V60.3678Z" fill="black"/>
<path d="M49.9669 57.6744C50.5754 57.6744 51.1355 57.7021 51.6506 57.7609C51.9376 57.7989 52.0794 57.875 52.0794 57.9925C52.0794 58.1861 51.9376 58.2518 51.6506 58.1965C51.139 58.1377 50.527 58.1101 49.8251 58.1101C49.673 58.4765 49.5209 58.8534 49.3688 59.2372C49.2166 59.621 49.0645 60.0082 48.9124 60.392C46.6132 66.1935 44.2587 70.8783 41.8523 74.4429C39.446 78.0075 37.0189 80.4761 34.5641 81.8452C33.2122 82.5574 31.9123 82.9136 30.6572 82.9136C28.6415 82.9136 26.9197 82.0734 25.4953 80.3966C24.7934 79.5288 24.2645 78.5987 23.9118 77.6064C23.5591 76.6142 23.3828 75.5216 23.3828 74.3253C23.3828 70.8748 24.8937 67.8289 27.9189 65.1908C29.4575 63.8217 31.1966 62.6324 33.1258 61.6193C35.055 60.6063 37.1917 59.7835 39.5289 59.1473C41.2023 58.7047 42.8377 58.3521 44.435 58.0928C46.0323 57.8335 47.64 57.6917 49.2547 57.6744M49.2789 57.6744C49.4517 57.3391 49.6177 57.0071 49.7802 56.6718C49.9427 56.3364 50.1156 55.9872 50.2988 55.6173C50.482 55.2473 50.7137 54.8324 50.9903 54.3726C51.4985 53.4979 51.986 52.6024 52.4597 51.6931C52.9333 50.7838 53.4208 49.878 53.9291 48.979C53.4692 48.5641 53.2722 48.2184 53.3413 47.9418C53.4796 47.5511 54.0916 47.1362 55.1738 46.6971C55.7511 45.8224 56.4772 44.716 57.3519 43.378C58.2267 42.04 59.2639 40.4738 60.4636 38.6759C60.5777 38.4927 60.9926 38.261 61.7083 37.9844C62.0091 37.8911 62.1577 37.9257 62.1577 38.0882C62.1577 38.1815 62.1232 38.2368 62.054 38.261C61.9849 38.2852 61.8811 38.3993 61.7428 38.6068C61.0514 39.6198 60.308 40.74 59.5128 41.9605C58.7176 43.1809 57.8809 44.5535 57.0062 46.0748C57.9501 45.7048 58.7937 45.4421 59.5301 45.2796C60.2665 45.1171 60.9373 45.0376 61.5354 45.0376C63.195 45.0376 64.0247 45.7982 64.0247 47.3195C64.0247 48.5192 62.3029 51.2575 61.328 52.2981C59.5197 54.2274 56.937 55.1678 53.9637 55.5135C53.4796 55.5585 53.2376 55.3407 53.2376 54.8566C53.2376 54.7183 53.2722 54.5904 53.3759 54.5109C53.6525 54.2931 60.92 55.4064 62.6418 47.5961C62.908 46.379 61.9503 45.7291 60.5673 45.7291C60.0383 45.7291 59.4333 45.8431 58.7522 46.0748C58.0711 46.3064 57.2932 46.6522 56.4184 47.112C55.9793 47.8484 55.5126 48.5399 55.0182 49.1865C54.5238 49.833 53.9913 50.5694 53.4278 51.3992C52.8642 52.229 52.2592 53.2247 51.6126 54.3899C51.0802 55.3476 50.527 56.5127 49.9496 57.8853M48.3384 60.3678C48.4491 60.0912 48.5805 59.78 48.7291 59.4377C48.8778 59.0954 49.0438 58.7082 49.2305 58.2829C47.8233 58.3002 46.4092 58.4247 44.9882 58.6598C43.5707 58.8914 42.1013 59.2303 40.58 59.6763C38.3915 60.3263 36.3827 61.1318 34.5468 62.0965C32.7109 63.0611 31.0444 64.202 29.5405 65.5158C26.166 68.389 24.4788 71.3831 24.4788 74.4982C24.4788 76.462 25.1945 78.1423 26.619 79.5322C27.2862 80.2168 28.0227 80.725 28.8282 81.0466C29.6338 81.3716 30.5016 81.5341 31.4282 81.5341C32.6349 81.5341 33.7551 81.2471 34.7923 80.6732C36.8875 79.5426 39.0103 77.4024 41.1608 74.2493C41.9595 73.1014 42.7547 71.8291 43.5534 70.4392C44.352 69.0493 45.13 67.5108 45.8906 65.8236C46.2986 64.935 46.7031 64.0292 47.1007 63.1129C47.4983 62.1967 47.9132 61.2805 48.3384 60.3747V60.3678Z" stroke="black" stroke-width="0.5" stroke-miterlimit="10"/>
<path d="M68.3467 47.4266C68.0943 47.7724 67.8212 48.1596 67.5342 48.5849C67.2472 49.0101 66.9741 49.4665 66.7217 49.9505C66.4693 50.4346 66.248 50.9359 66.0648 51.4545C65.8815 51.9731 65.7778 52.509 65.7536 53.0622C65.7294 53.5705 65.7813 53.9854 65.9092 54.3069C66.0371 54.6284 66.21 54.8774 66.4278 55.0502C66.6456 55.2231 66.9015 55.3372 67.1885 55.396C67.4754 55.4548 67.7693 55.472 68.0701 55.4478C68.8307 55.3337 69.6432 55.1125 70.5076 54.7909C71.3719 54.4694 72.1153 54.134 72.7376 53.7883C72.9208 53.6742 73.0591 53.6569 73.1525 53.7364C73.2458 53.8159 73.1974 53.9162 73.0142 54.0303C72.7618 54.217 72.461 54.4175 72.1153 54.6353C71.7695 54.8532 71.3892 55.0675 70.9743 55.275C70.5594 55.4824 70.1273 55.6726 69.6778 55.8454C69.2283 56.0183 68.7961 56.1393 68.3813 56.2085C68.0355 56.2776 67.6552 56.2361 67.2403 56.0875C66.8254 55.9388 66.4451 55.7141 66.0994 55.4133C65.7536 55.1125 65.4667 54.7633 65.235 54.3587C65.0034 53.9542 64.8996 53.5221 64.9238 53.0622C64.993 51.7933 65.3422 50.5279 65.9784 49.2591C66.6111 47.9902 67.3855 46.8112 68.2948 45.7152C69.2041 44.6192 70.1618 43.6753 71.1645 42.8801C72.1671 42.0849 73.073 41.5248 73.8786 41.2033C74.3176 41.065 74.7083 41.0823 75.0541 41.2551C75.3998 41.428 75.6695 41.6804 75.8666 42.0158C76.0636 42.3511 76.1777 42.7245 76.2123 43.1394C76.2469 43.5543 76.1604 43.9346 75.953 44.2804C75.6073 44.9269 74.9089 45.6841 74.086 46.2511C72.3296 47.4577 68.3467 47.4266 68.3467 47.4266ZM75.1232 43.9692C75.3549 43.5993 75.4793 43.2777 75.5035 43.0011C75.5277 42.7245 75.469 42.5102 75.3307 42.3615C75.1924 42.2128 74.9918 42.1437 74.7256 42.1541C74.4594 42.1644 74.1551 42.2647 73.8094 42.448C72.9554 42.932 72.0911 43.5716 71.2163 44.3668C70.3416 45.162 69.5118 45.9849 68.727 46.8389C69.3251 46.8389 69.9475 46.7697 70.594 46.6314C71.2405 46.4931 71.849 46.2926 72.4264 46.0264C73.0038 45.7602 73.5259 45.4559 73.9996 45.1102C74.4732 44.7644 74.8466 44.3841 75.1232 43.9692Z" fill="black" stroke="black" stroke-width="0.5" stroke-miterlimit="10"/>
<path d="M76.126 49.6393L76.2297 48.9132C77.2911 48.0593 78.2765 47.0324 79.2791 46.4101C80.2818 45.7877 83.065 43.7202 83.753 44.7367C84.2094 45.4143 82.6155 47.3885 82.1765 48.0662C81.7374 48.7473 81.2775 49.5114 80.7935 50.3654C79.6629 52.3949 79.0994 53.8332 79.0994 54.6871C79.0994 55.2853 79.4105 55.5861 80.0329 55.5861C81.1634 55.5861 83.0062 54.618 85.5647 52.6818C85.6339 52.6369 85.6961 52.6023 85.7549 52.5781C85.8137 52.5539 85.8517 52.5332 85.8759 52.509C85.9001 52.5332 85.9105 52.5504 85.9105 52.5608C85.9105 52.5747 85.9208 52.5885 85.945 52.6127L85.703 52.8547C82.7054 55.2991 80.5238 56.3121 79.2031 56.5196C77.5504 56.7823 77.1425 55.389 77.3015 54.4797C77.6334 52.585 78.9334 50.2132 81.0078 47.793C81.3259 47.4231 81.3536 46.7558 80.6206 46.8042C80.389 46.8215 79.6249 47.1016 78.9783 47.634C78.719 47.8484 78.4528 48.0385 78.2004 48.2218L76.126 49.6393Z" fill="black" stroke="black" stroke-width="0.5" stroke-miterlimit="10"/>
<path d="M88.2616 55.7936C87.9608 55.9769 87.6981 56.0702 87.4664 56.0702C86.889 56.0702 86.6021 55.6657 86.6021 54.8601C86.6021 53.2248 87.8813 51.1261 90.4398 48.5676C91.6153 47.3921 92.7217 46.4413 93.7589 45.7153C94.7961 44.9892 95.7642 44.4429 96.6631 44.073C96.8706 44.0038 97.0953 43.9416 97.3373 43.8828C97.5793 43.824 97.8283 43.7964 98.0807 43.7964C98.3573 43.7964 98.6339 43.824 98.9104 43.8828C99.187 43.9416 99.6607 44.1179 99.9027 44.277C100.94 44.9685 100.484 46.0956 99.8267 47.0982C99.1698 48.1009 98.5301 49.1208 97.9078 50.158C97.4238 50.9636 96.9501 51.8937 96.4903 52.9413C96.0304 53.9888 95.6086 55.0503 95.2283 56.1221C94.848 57.1939 94.5195 58.2138 94.2429 59.1819C93.9663 60.15 93.7831 60.9694 93.6898 61.6367C93.6656 61.7507 93.6552 61.8545 93.6552 61.9478V62.2936C93.6552 63.0784 93.8972 63.6592 94.3812 64.0396C94.8653 64.4199 95.5222 64.61 96.352 64.61C97.1817 64.61 98.0011 64.4717 98.8067 64.1951C100.027 63.7803 101.618 62.788 103.578 61.2218C104.522 60.4611 105.369 59.6763 106.119 58.8707C106.869 58.0651 107.519 57.3045 108.073 56.5888C108.28 56.3572 108.418 56.2431 108.487 56.2431C108.512 56.2673 108.522 56.3019 108.522 56.3468C108.522 56.4402 108.477 56.5646 108.384 56.7271C107.855 57.512 107.215 58.3417 106.465 59.2165C105.715 60.0912 104.823 60.9694 103.785 61.8441C102.817 62.6289 101.946 63.272 101.175 63.7803C100.404 64.2885 99.6953 64.655 99.0487 64.8866C98.7272 65.0007 98.4022 65.0872 98.0807 65.1459C97.7591 65.2047 97.4134 65.2324 97.0434 65.2324C96.4903 65.2324 95.982 65.1459 95.5222 64.9731C95.0623 64.8002 94.6475 64.5858 94.2775 64.3334C93.8384 64.081 93.5342 63.7146 93.3613 63.2444C93.1884 62.7707 93.1124 62.2348 93.1366 61.6367C93.1608 61.1526 93.2576 60.5061 93.4304 59.7005C93.6033 58.8949 93.828 58.034 94.1046 57.1247C94.3812 56.2154 94.682 55.3096 95.0036 54.4107C95.3251 53.5117 95.6501 52.7165 95.9716 52.025C96.3623 51.1953 96.7496 50.4243 97.1299 49.7086C97.5102 48.9929 97.894 48.3394 98.2881 47.7378C98.4506 47.4855 98.4368 47.3575 98.2535 47.3575C98.2293 47.3575 98.1948 47.3817 98.1498 47.4267C97.5966 48.094 96.9328 48.7993 96.1618 49.5357C95.3908 50.2721 94.4953 51.0812 93.4823 51.9559C91.4528 53.6604 89.7137 54.9396 88.2616 55.7936ZM88.8148 52.8548C88.7214 53.1072 88.6765 53.3734 88.6765 53.65C88.6765 54.2032 88.8839 54.4798 89.2988 54.4798C89.4613 54.4798 89.6342 54.421 89.8174 54.3069C91.1071 53.5014 92.4693 52.4123 93.8972 51.0397C95.3251 49.6671 96.8602 48.0041 98.4956 46.0437C98.5647 45.9746 98.5993 45.895 98.5993 45.8017C98.5993 45.5493 98.4506 45.3107 98.1498 45.0929C97.849 44.8751 97.4687 44.7645 97.0089 44.7645C96.7565 44.7645 96.4903 44.799 96.2137 44.8682C95.1315 45.1448 93.7589 46.1924 92.0993 48.0144C91.3145 48.8892 90.6541 49.7328 90.1113 50.5383C89.5685 51.3439 89.1363 52.1184 88.8148 52.8548Z" fill="black" stroke="black" stroke-width="0.5" stroke-miterlimit="10"/>
</g>
<path d="M7.79222 47.0116L7.40612 48.7365L11.8951 49.6697L11.6818 50.6227L7.19281 49.6894L6.81098 51.3953L6.03175 51.2333L7.01298 46.8496L7.79222 47.0116Z" fill="black"/>
<path d="M9.48665 39.7256C9.66943 39.294 9.9201 38.9607 10.2387 38.7258C10.5542 38.4898 10.9165 38.356 11.3256 38.3246C11.7347 38.2932 12.1695 38.368 12.6299 38.5491L13.1479 38.7528L11.7238 42.1161C12.2638 42.318 12.7335 42.3436 13.133 42.193C13.5295 42.0412 13.8286 41.727 14.0304 41.2504C14.1637 40.9357 14.2521 40.6435 14.2956 40.3739C14.3391 40.1042 14.3576 39.8143 14.3512 39.504L15.1191 39.8061C15.1289 40.1001 15.1062 40.3832 15.0511 40.6552C15.0002 40.9255 14.9012 41.2345 14.754 41.5822C14.5509 42.0618 14.2756 42.4448 13.9281 42.7313C13.5819 43.0147 13.177 43.1824 12.7133 43.2343C12.2465 43.285 11.7345 43.2008 11.1771 42.9815C10.6257 42.7647 10.1934 42.488 9.88003 42.1515C9.56364 41.8137 9.37138 41.4374 9.30325 41.0225C9.23512 40.6075 9.29625 40.1753 9.48665 39.7256ZM10.1936 40.0089C10.0388 40.3746 10.0355 40.716 10.184 41.0332C10.3293 41.3491 10.618 41.6147 11.0498 41.83L12.0817 39.393C11.8048 39.2876 11.5441 39.2357 11.2995 39.2375C11.0549 39.2392 10.8374 39.3022 10.6469 39.4266C10.4577 39.548 10.3066 39.7421 10.1936 40.0089Z" fill="black"/>
<path d="M14.9954 33.9185C14.3428 33.5072 13.8312 33.0906 13.4609 32.6688C13.0878 32.2452 12.8572 31.8057 12.7691 31.3503C12.6783 30.8931 12.7337 30.4089 12.9352 29.8975C13.0746 29.5124 13.2292 29.131 13.3989 28.7534C13.5704 28.3732 13.7447 28.0004 13.9218 27.6351L14.7338 27.9681C14.6444 28.1463 14.5536 28.3352 14.4614 28.5347C14.3665 28.7326 14.2729 28.9313 14.1808 29.1308C14.0886 29.3304 14.0033 29.5227 13.9249 29.7079C13.8482 29.8903 13.7849 30.0561 13.7348 30.2053C13.6299 30.4815 13.5902 30.7487 13.6155 31.0069C13.6408 31.2651 13.75 31.5243 13.943 31.7844C14.1352 32.0401 14.4291 32.308 14.8248 32.5881L14.8605 32.5356C14.7978 32.3846 14.7543 32.2053 14.7301 31.9977C14.703 31.7884 14.7149 31.5652 14.7658 31.328C14.8166 31.0909 14.9233 30.8524 15.086 30.6127C15.3419 30.2356 15.6393 29.9712 15.9781 29.8194C16.3188 29.6649 16.6868 29.618 17.0821 29.6787C17.4764 29.7349 17.8828 29.8949 18.3014 30.1587C18.8027 30.4746 19.1655 30.8264 19.39 31.214C19.6136 31.5971 19.7066 31.9961 19.669 32.4107C19.6314 32.8254 19.4727 33.2388 19.1931 33.651C18.9774 33.9688 18.7217 34.2153 18.426 34.3904C18.1321 34.5628 17.805 34.6624 17.4448 34.6892C17.0836 34.7115 16.6976 34.6605 16.2866 34.5361C15.8747 34.4073 15.4443 34.2014 14.9954 33.9185ZM18.5499 33.1648C18.7107 32.9278 18.7978 32.6923 18.811 32.4584C18.8233 32.2201 18.75 31.9835 18.5909 31.7486C18.4318 31.5137 18.1705 31.2818 17.8069 31.0527C17.3553 30.768 16.9457 30.6272 16.578 30.6301C16.2077 30.6312 15.8982 30.815 15.6496 31.1813C15.4943 31.4103 15.4036 31.6512 15.3775 31.9039C15.3506 32.1523 15.3621 32.3845 15.412 32.6006C15.462 32.8166 15.5215 32.9868 15.5905 33.111C15.8549 33.2777 16.1252 33.4211 16.4014 33.5413C16.6767 33.6571 16.9459 33.7326 17.2091 33.7677C17.4741 33.8001 17.7215 33.7715 17.9514 33.6818C18.1804 33.5877 18.3799 33.4153 18.5499 33.1648Z" fill="black"/>
<path d="M21.6348 22.148C21.9676 21.8178 22.3266 21.6036 22.7119 21.5053C23.0949 21.4049 23.483 21.4161 23.8763 21.5392C24.2696 21.6622 24.6468 21.8928 25.0081 22.2309L25.4144 22.6113L22.8219 25.1839C23.2495 25.5707 23.6778 25.7689 24.1069 25.7785C24.5337 25.7858 24.9307 25.6072 25.2981 25.2426C25.5408 25.0019 25.733 24.7653 25.875 24.5327C26.0169 24.3002 26.1432 24.0397 26.2539 23.7512L26.8563 24.3151C26.7549 24.5899 26.6273 24.8426 26.4736 25.073C26.3246 25.3033 26.116 25.5515 25.848 25.8175C25.4783 26.1843 25.0776 26.4353 24.6459 26.5704C24.2165 26.7031 23.7759 26.7073 23.324 26.5829C22.8698 26.4562 22.424 26.1882 21.9867 25.7789C21.5541 25.3741 21.2551 24.9582 21.0894 24.5314C20.9214 24.1024 20.8837 23.6839 20.9762 23.2759C21.0687 22.8679 21.2882 22.4919 21.6348 22.148ZM22.1875 22.6719C21.9056 22.9517 21.7742 23.2653 21.7933 23.613C21.8101 23.9584 21.9793 24.3106 22.301 24.6696L24.1796 22.8055C23.961 22.6054 23.7374 22.4607 23.5087 22.3714C23.28 22.2821 23.0535 22.2594 22.8291 22.3034C22.607 22.345 22.3931 22.4679 22.1875 22.6719Z" fill="black"/>
<path d="M39.7834 10.195L42.2761 14.9636L41.4723 15.3539L39.95 12.4417C39.87 12.2888 39.793 12.1345 39.719 11.9787C39.6463 11.8187 39.5774 11.6622 39.5122 11.5094L39.4859 11.5222L39.9481 16.0939L39.2321 16.4415L35.7148 13.3477L35.6885 13.3605C35.7771 13.5019 35.8651 13.6491 35.9524 13.802C36.0381 13.9521 36.127 14.1151 36.219 14.2911L37.7255 17.173L36.9173 17.5654L34.4246 12.7968L35.6325 12.2103L39.0538 15.226L38.5974 10.7708L39.7834 10.195Z" fill="black"/>
<path d="M51.0903 9.53736C51.2074 9.96431 51.2552 10.3602 51.2337 10.725C51.2145 11.0859 51.1295 11.4098 50.9787 11.6968C50.8302 11.9798 50.6229 12.2206 50.3568 12.4194C50.0898 12.615 49.767 12.761 49.3885 12.8574C49.0352 12.9474 48.6939 12.9705 48.3647 12.9267C48.0377 12.879 47.7356 12.7678 47.4583 12.5933C47.1801 12.4156 46.937 12.1752 46.729 11.8722C46.5202 11.566 46.3573 11.1994 46.2402 10.7725C46.0844 10.2042 46.0496 9.69588 46.1359 9.24738C46.2213 8.79573 46.417 8.42012 46.723 8.12055C47.0312 7.81702 47.4377 7.601 47.9424 7.47247C48.4219 7.35036 48.8719 7.34829 49.2923 7.46624C49.7128 7.5842 50.0786 7.81682 50.3898 8.1641C50.701 8.51139 50.9345 8.96914 51.0903 9.53736ZM47.215 10.5242C47.3243 10.9229 47.469 11.2538 47.6491 11.517C47.8316 11.7761 48.0495 11.9557 48.3031 12.0557C48.5597 12.1549 48.8569 12.1615 49.1944 12.0756C49.5256 11.9912 49.7774 11.8448 49.9497 11.6364C50.1221 11.4279 50.2195 11.168 50.2422 10.8566C50.2639 10.5421 50.2201 10.1855 50.1108 9.78679C50.0024 9.39123 49.8589 9.06504 49.6805 8.8082C49.5021 8.55137 49.285 8.37492 49.0292 8.27886C48.7765 8.18199 48.4798 8.17694 48.1391 8.26369C47.6407 8.39062 47.3204 8.65019 47.1782 9.0424C47.0383 9.43068 47.0505 9.92462 47.215 10.5242Z" fill="black"/>
<path d="M63.7285 5.60036L61.6934 8.30894L64.1977 10.9648L63.1052 11.0175L60.6861 8.40152L60.8276 11.1273L59.9156 11.1713L59.7741 8.4455L57.6428 11.2809L56.5504 11.3336L58.7671 8.45007L56.4567 5.95106L57.5101 5.90025L59.772 8.40649L59.6366 5.7977L60.5486 5.75372L60.6841 8.36251L62.6799 5.65093L63.7285 5.60036Z" fill="black"/>
<path d="M70.4578 6.19948L70.0963 8.38164L72.823 8.80123L73.1845 6.61906L74.1497 6.76758L73.2702 12.0761L72.305 11.9276L72.6937 9.5816L69.967 9.16202L69.5783 11.508L68.6035 11.358L69.483 6.04947L70.4578 6.19948Z" fill="black"/>
<path d="M84.1405 12.512C83.9801 12.9246 83.7818 13.2734 83.5454 13.5583C83.3132 13.8412 83.0494 14.0574 82.754 14.2068C82.4628 14.3542 82.1487 14.4346 81.8119 14.448C81.4762 14.4583 81.1246 14.3971 80.7572 14.2645C80.4143 14.1407 80.1213 13.9693 79.8783 13.7501C79.6395 13.529 79.459 13.2701 79.3369 12.9735C79.216 12.6738 79.1613 12.3427 79.173 11.9802C79.1859 11.6147 79.2725 11.2256 79.4328 10.8129C79.6463 10.2637 79.9227 9.83072 80.2623 9.51389C80.6031 9.19404 80.9884 8.99752 81.4184 8.92435C81.8525 8.84925 82.3146 8.90011 82.8045 9.07693C83.2699 9.2449 83.6391 9.49408 83.9123 9.82445C84.1854 10.1548 84.3451 10.548 84.3913 11.0041C84.4375 11.4602 84.3539 11.9628 84.1405 12.512ZM80.379 11.1544C80.2292 11.5397 80.1491 11.8896 80.1386 12.2042C80.1324 12.5167 80.2029 12.7844 80.3503 13.0071C80.5007 13.2309 80.7398 13.4019 81.0674 13.5202C81.3889 13.6362 81.6826 13.6575 81.9486 13.584C82.2146 13.5104 82.4502 13.3533 82.6555 13.1125C82.8619 12.8688 83.04 12.5542 83.1898 12.1689C83.3383 11.7866 83.4167 11.4412 83.4248 11.1327C83.433 10.8243 83.3612 10.5597 83.2096 10.3389C83.0611 10.1192 82.8214 9.94971 82.4908 9.83036C82.007 9.65575 81.5893 9.68837 81.2377 9.92822C80.8904 10.1661 80.6042 10.5749 80.379 11.1544Z" fill="black"/>
<path d="M96.5769 22.9908L98.9876 17.006L98.9577 16.9809C98.8756 17.0862 98.7674 17.2204 98.633 17.3837C98.5033 17.5466 98.3579 17.7219 98.197 17.9096C98.0408 18.097 97.883 18.2788 97.7236 18.4551L94.8979 21.5811L94.1948 20.9908L98.982 15.6952L100.085 16.6214L97.8046 22.2949L97.8308 22.3169L103.391 19.3969L104.487 20.3168L99.6994 25.6124L98.959 24.9908L101.824 21.8214C101.968 21.662 102.12 21.4987 102.28 21.3314C102.442 21.1617 102.597 21.0027 102.744 20.8545C102.896 20.7059 103.022 20.584 103.121 20.4889L103.087 20.4606L97.2313 23.5402L96.5769 22.9908Z" fill="black"/>
<path d="M110.231 32.7484C109.778 33.0606 109.323 33.2888 108.867 33.4332C108.414 33.5757 107.971 33.6282 107.538 33.5907C107.11 33.554 106.7 33.4195 106.309 33.1873C105.92 32.9577 105.561 32.6219 105.233 32.1802C104.9 31.7305 104.681 31.2885 104.578 30.8542C104.476 30.4224 104.478 30.0044 104.583 29.6001C104.688 29.1958 104.886 28.8103 105.177 28.4438C105.47 28.0798 105.843 27.7418 106.296 27.4296C106.899 27.014 107.499 26.7468 108.095 26.6281C108.692 26.5093 109.261 26.5614 109.804 26.7844C110.35 27.0081 110.847 27.4206 111.293 28.0218C111.724 28.6022 111.96 29.1743 112.001 29.7382C112.043 30.3021 111.911 30.8395 111.606 31.3504C111.303 31.8594 110.844 32.3254 110.231 32.7484ZM106.914 28.2782C106.437 28.607 106.071 28.9555 105.818 29.3238C105.569 29.6928 105.448 30.0761 105.456 30.4739C105.468 30.8725 105.629 31.2796 105.937 31.6953C106.249 32.1161 106.598 32.3952 106.984 32.5326C107.372 32.6681 107.785 32.6794 108.224 32.5666C108.666 32.4519 109.125 32.2302 109.602 31.9014C110.326 31.4027 110.785 30.8691 110.979 30.3008C111.175 29.7306 111.043 29.1344 110.581 28.5123C110.271 28.094 109.922 27.8149 109.535 27.6749C109.15 27.5331 108.736 27.516 108.293 27.6236C107.853 27.7293 107.393 27.9475 106.914 28.2782Z" fill="black"/>
<path d="M117.017 37.955C117.266 38.5034 117.403 38.9845 117.426 39.3983C117.454 39.8139 117.368 40.1679 117.169 40.4604C116.972 40.7517 116.661 40.9871 116.235 41.1667C115.899 41.3084 115.588 41.3671 115.302 41.343C115.016 41.3189 114.754 41.2385 114.517 41.1019C114.281 40.9682 114.07 40.8065 113.884 40.6166L111.776 43.6721L111.302 42.6273L113.274 39.9099L112.73 38.7139L110.04 39.8485L109.626 38.9371L116.204 36.1633L117.017 37.955ZM116.208 38.2273L115.835 37.4048L113.5 38.3895L113.902 39.2743C114.134 39.787 114.405 40.1196 114.714 40.272C115.025 40.4231 115.379 40.4152 115.775 40.2482C116.186 40.0749 116.42 39.8263 116.476 39.5022C116.536 39.1769 116.447 38.752 116.208 38.2273Z" fill="black"/>
<path d="M114.184 52.2739L113.274 48.3696L120.252 46.8603L121.161 50.7646L120.321 50.9463L119.639 48.0169L117.563 48.4659L118.204 51.2194L117.374 51.399L116.732 48.6456L114.346 49.1617L115.028 52.0912L114.184 52.2739Z" fill="black"/>
<defs>
<clipPath id="clip0_1105_314">
<rect width="86.6083" height="60" fill="white" transform="translate(22 23)"/>
</clipPath>
</defs>
</svg>
